<?xml version="1.0" encoding="UTF-8"?>
<svg width="263px" height="251px" viewBox="0 0 263 251" version="1.1" xmlns="http://www.w3.org/2000/svg" xmlns:xlink="http://www.w3.org/1999/xlink">
    <!-- Generator: Sketch 44.1 (41455) - http://www.bohemiancoding.com/sketch -->
    <title>Cannon Logo</title>
    <desc>Created with Sketch.</desc>
    <defs>
        <path d="M94.5195951,18.4459857 C94.9514923,11.8291883 100.669503,6.46521418 107.305227,6.46521418 L182.811168,6.46521418 C189.44058,6.46521418 195.143588,11.8299954 195.549082,18.4459857 L204.901272,171.035171 C206.923566,204.030688 181.769791,230.778839 148.707451,230.778839 L140.515534,230.778839 C107.458248,230.778839 82.4052511,204.041428 84.5584628,171.053568 L94.5195951,18.4459857 Z" id="path-1"></path>
        <path d="M88.0899434,175.173107 C91.9504435,155.101774 111.638194,138.830744 132.071709,138.830744 L139.911739,138.830744 C160.341697,138.830744 180.45898,155.002328 184.847814,174.964022 L198.851003,238.654608 C200.037863,244.052794 196.51731,248.428889 191.008032,248.428889 L83.9919713,248.428889 C78.4735579,248.428889 74.8459078,244.030884 75.8892606,238.606332 L88.0899434,175.173107 Z" id="path-2"></path>
    </defs>
    <g id="Logo" stroke="none" stroke-width="1" fill="none" fill-rule="evenodd">
        <g id="Cannon-Logo">
            <g id="logo" transform="translate(-33.000000, -63.000000)">
                <g id="Group-2" transform="translate(162.000000, 149.500000) rotate(15.000000) translate(-162.000000, -149.500000) translate(27.000000, 31.000000)">
                    <circle id="Oval-1" stroke="#354251" stroke-width="9" fill="#C2C7CC" cx="209" cy="66" r="42"></circle>
                    <path d="M31,106.037909 C31,106.037909 38.2559524,105.329276 45.827381,110.039638 C53.3988095,114.75 57.5,123.5 57.5,123.5" id="Line" stroke="#354251" stroke-width="9" stroke-linecap="square" transform="translate(44.250000, 114.750000) rotate(30.000000) translate(-44.250000, -114.750000) "></path>
                    <g id="Rectangle-1" transform="translate(144.722294, 118.622026) rotate(50.000000) translate(-144.722294, -118.622026) ">
                        <use fill="#8795A0" fill-rule="evenodd" xlink:href="#path-1"></use>
                        <path stroke="#354251" stroke-width="9" d="M99.0100394,18.7390898 L89.0489071,171.346672 C87.0651468,201.738485 110.057908,226.278839 140.515534,226.278839 L148.707451,226.278839 C179.174426,226.278839 202.273445,201.719095 200.4097,171.31046 L191.05751,18.721274 C190.797496,14.4789118 187.061909,10.9652142 182.811168,10.9652142 L107.305227,10.9652142 C103.043716,10.9652142 99.2876483,14.4860366 99.0100394,18.7390898 Z"></path>
                    </g>
                    <path d="M118.545397,23.517067 L178.452336,23.517067 C180.660099,23.517067 182.552621,25.3077228 182.679345,27.5156379 L191.992999,189.787141 C193.288222,212.353774 176.016237,230.647645 153.422953,230.647645 L140.740012,230.647645 C123.071015,230.647645 109.42478,216.328999 110.259595,198.680813 L118.545397,23.517067 Z" id="Rectangle-1" fill="#6D7984" transform="translate(151.142291, 127.082356) rotate(50.000000) translate(-151.142291, -127.082356) "></path>
                    <g id="Group" transform="translate(29.541759, 96.586313) rotate(-20.000000) translate(-29.541759, -96.586313) translate(6.541759, 74.086313)" fill="#ED9520">
                        <rect id="Rectangle-2" x="0.631136597" y="21.1057738" width="15" height="6" rx="3"></rect>
                        <rect id="Rectangle-2" transform="translate(27.131137, 8.105774) scale(-1, 1) rotate(75.000000) translate(-27.131137, -8.105774) " x="19.6311366" y="5.10577377" width="15" height="6" rx="3"></rect>
                        <rect id="Rectangle-2" transform="translate(13.131137, 37.105774) rotate(-40.000000) translate(-13.131137, -37.105774) " x="5.6311366" y="34.1057738" width="15" height="6" rx="3"></rect>
                        <rect id="Rectangle-2" transform="translate(38.131137, 15.105774) rotate(-40.000000) translate(-38.131137, -15.105774) " x="30.6311366" y="12.1057738" width="15" height="6" rx="3"></rect>
                        <rect id="Rectangle-2" transform="translate(13.041391, 11.502888) rotate(53.000000) translate(-13.041391, -11.502888) " x="5.54139064" y="8.50288809" width="15" height="6" rx="3"></rect>
                    </g>
                    <rect id="Rectangle-2" fill="#354251" transform="translate(32.500000, 98.500000) rotate(30.000000) translate(-32.500000, -98.500000) " x="28" y="94" width="9" height="9" rx="4.5"></rect>
                </g>
                <g id="Rectangle-8">
                    <use fill="#565F66" fill-rule="evenodd" xlink:href="#path-2"></use>
                    <path stroke="#354251" stroke-width="9" d="M92.5089468,176.023054 L80.308264,239.456279 C79.7984232,242.10702 81.3012598,243.928889 83.9919713,243.928889 L191.008032,243.928889 C193.644462,243.928889 195.025135,242.209612 194.455976,239.620911 L180.452787,175.930325 C176.518114,158.034284 158.230816,143.330744 139.911739,143.330744 L132.071709,143.330744 C113.797381,143.330744 95.9622433,158.068835 92.5089468,176.023054 Z"></path>
                </g>
                <ellipse id="Oval-1" stroke="#354251" stroke-width="9" fill="#8795A0" cx="135.741412" cy="190.039175" rx="33.4099998" ry="32.8770657"></ellipse>
                <ellipse id="Oval-1" stroke="#354251" stroke-width="9" fill="#ED9520" cx="134.741412" cy="189.326299" rx="15.4099998" ry="15.1641897"></ellipse>
                <path d="M128.573402,183.3966 L141.825524,199.337558" id="Line" stroke="#354251" stroke-width="7" stroke-linecap="square"></path>
                <text id="BRIGHTER" font-family="BrandonGrotesque-Bold, Brandon Grotesque" font-size="36" font-weight="bold" letter-spacing="13.3150682">
                    <tspan x="30" y="313" fill="#354251">BR</tspan>
                    <tspan x="102.818136" y="313" fill="#EE9721">I</tspan>
                    <tspan x="127.401205" y="313" fill="#354251">GHTER</tspan>
                </text>
                <path d="M79.0663776,77.729292 C79.0663776,76.3840739 78.2427084,75.4982682 78.2427084,75.4982682 C77.3757753,74.0867625 77.9039054,73.491091 79.4441756,74.0969695 C79.4441756,74.0969695 80.195233,74.6178844 81.5785491,74.6178844 C82.9067049,74.6178844 83.4927158,74.142271 83.4927158,74.142271 C85.0136159,73.4796619 85.5649937,74.0966509 84.7978146,75.5639283 C84.7978146,75.5639283 84.0924977,76.3623371 84.0924977,77.729292 C84.0924977,79.0738089 84.8037844,79.8973713 84.8037844,79.8973713 C85.6006013,81.3436402 85.0316021,81.9488679 83.4968655,81.3207943 C83.4968655,81.3207943 82.8885519,80.8406995 81.5785491,80.8406995 C80.1770801,80.8406995 79.4361823,81.3616144 79.4361823,81.3616144 C77.9101118,81.9992042 77.4106125,81.3931678 78.2427084,79.9694431 C78.2427084,79.9694431 79.0663776,79.0955458 79.0663776,77.729292 Z" id="Rectangle" fill="#F5A623"></path>
                <path d="M35.0663776,91.729292 C35.0663776,90.3840739 34.2427084,89.4982682 34.2427084,89.4982682 C33.3757753,88.0867625 33.9039054,87.491091 35.4441756,88.0969695 C35.4441756,88.0969695 36.195233,88.6178844 37.5785491,88.6178844 C38.9067049,88.6178844 39.4927158,88.142271 39.4927158,88.142271 C41.0136159,87.4796619 41.5649937,88.0966509 40.7978146,89.5639283 C40.7978146,89.5639283 40.0924977,90.3623371 40.0924977,91.729292 C40.0924977,93.0738089 40.8037844,93.8973713 40.8037844,93.8973713 C41.6006013,95.3436402 41.0316021,95.9488679 39.4968655,95.3207943 C39.4968655,95.3207943 38.8885519,94.8406995 37.5785491,94.8406995 C36.1770801,94.8406995 35.4361823,95.3616144 35.4361823,95.3616144 C33.9101118,95.9992042 33.4106125,95.3931678 34.2427084,93.9694431 C34.2427084,93.9694431 35.0663776,93.0955458 35.0663776,91.729292 Z" id="Rectangle" fill="#F5A623"></path>
            </g>
        </g>
    </g>
</svg>